<svg width="189" height="95" viewBox="0 0 189 95" fill="none" xmlns="http://www.w3.org/2000/svg">
<path d="M35.9337 62.4645C37.3512 63.9056 38.745 65.2995 40.1862 66.7879C38.8395 67.3549 37.4457 67.9455 35.9337 68.5834C35.9337 66.4335 35.9337 64.449 35.9337 62.4645Z" fill="white"/>
<path d="M40.3751 35.5084C38.7686 36.9731 37.2802 38.3434 35.91 39.5955C35.91 37.8472 35.91 35.8391 35.91 33.6892C37.3983 34.3035 38.7922 34.8705 40.3751 35.5084Z" fill="white"/>
<path d="M23.3414 62.7716C23.3414 64.4254 23.3414 66.4099 23.3414 68.5361C21.8531 67.9455 20.4828 67.3785 18.9944 66.7879C20.5301 65.3467 21.9948 64.0001 23.3414 62.7716Z" fill="white"/>
<path d="M34.7051 41.4619C33.075 42.9266 31.5866 44.2733 30.1927 45.5018C30.1927 43.8008 30.1927 41.7926 30.1927 39.6428C31.6339 40.2334 33.0514 40.8004 34.7051 41.4619Z" fill="white"/>
<path d="M42.9503 53.6524C42.3597 55.1407 41.7927 56.511 41.1548 58.1411C39.7373 56.511 38.4143 55.0226 37.2094 53.6524C38.8395 53.6524 40.8004 53.6524 42.9503 53.6524Z" fill="white"/>
<path d="M14.1277 41.0602C12.2377 41.0602 10.2532 41.0602 8.12695 41.0602C8.7412 39.5482 9.3082 38.1544 9.92245 36.666C11.4108 38.2016 12.7811 39.6427 14.1277 41.0602Z" fill="white"/>
<path d="M23.1761 54.7864C23.1761 56.6055 23.1761 58.59 23.1761 60.7163C21.6877 60.102 20.2939 59.535 18.8055 58.9208C20.3411 57.4796 21.8059 56.0858 23.1761 54.7864Z" fill="white"/>
<path d="M31.2322 47.8643C32.9332 47.8643 34.9177 47.8643 37.0204 47.8643C36.4297 49.329 35.8864 50.7465 35.2721 52.2585C33.831 50.6993 32.4844 49.2345 31.2322 47.8643Z" fill="white"/>
<path d="M14.175 53.6051C12.8757 54.9754 11.4818 56.4165 10.0407 57.9285C9.45005 56.4874 8.85942 55.0935 8.2688 53.6051C10.3714 53.6051 12.3795 53.6051 14.175 53.6051Z" fill="white"/>
<path d="M50.7701 53.4161C50.1559 54.9281 49.6125 56.2984 49.0219 57.7867C47.6044 56.2275 46.2341 54.7627 45.0056 53.4161C46.6594 53.4161 48.6202 53.4161 50.7701 53.4161Z" fill="white"/>
<path d="M45.7853 64.4017C44.4623 64.9687 43.0684 65.5594 41.5328 66.1972C41.5328 64.0474 41.5328 62.0392 41.5328 60.102C42.903 61.4959 44.3205 62.937 45.7853 64.4017Z" fill="white"/>
<path d="M44.6512 40.8713C46.0687 39.4538 47.4626 38.0363 48.9274 36.5715C49.5416 37.989 50.1086 39.3593 50.7701 40.8713C48.6439 40.8713 46.6594 40.8713 44.6512 40.8713Z" fill="white"/>
<path d="M46.6594 31.1378C47.1791 32.3663 47.7697 33.7365 48.4076 35.2485C46.2814 35.2485 44.2969 35.2485 42.3832 35.2485C43.7299 33.9492 45.171 32.5789 46.6594 31.1378Z" fill="white"/>
<path d="M23.1997 32.0355C21.7822 30.6889 20.3411 29.3186 18.8055 27.8539C20.3175 27.2396 21.7114 26.649 23.1997 26.0348C23.1997 28.1374 23.1997 30.1455 23.1997 32.0355Z" fill="white"/>
<path d="M40.2569 27.7358C38.6268 29.2241 37.1384 30.5944 35.7209 31.8701C35.7209 30.051 35.7209 28.0193 35.7209 25.9166C37.1621 26.4836 38.5796 27.0506 40.2569 27.7358Z" fill="white"/>
<path d="M24.5936 41.4855C26.0111 40.8949 27.405 40.3279 28.8934 39.7136C28.8934 41.8399 28.8934 43.8244 28.8934 45.738C27.5231 44.3677 26.082 42.9739 24.5936 41.4855Z" fill="white"/>
<path d="M36.7605 40.7531C38.2489 39.2884 39.6427 37.9181 41.1311 36.4534C41.7217 37.8472 42.3124 39.2411 42.9502 40.7531C40.8476 40.7531 38.8631 40.7531 36.7605 40.7531Z" fill="white"/>
<path d="M30.0983 54.9517C30.0983 52.7546 30.0983 50.7465 30.0983 48.7856C31.5158 50.1795 32.9333 51.597 34.4453 53.109C33.0514 53.6996 31.6575 54.2902 30.0983 54.9517Z" fill="white"/>
<path d="M28.9406 63.1024C27.4286 62.4881 26.0584 61.9211 24.57 61.3069C26.1056 59.8657 27.5468 58.5191 28.9406 57.2197C28.9406 58.9916 28.9406 60.9761 28.9406 63.1024Z" fill="white"/>
<path d="M15.3799 42.2179C16.8682 43.7535 18.2385 45.1946 19.656 46.6357C17.6479 46.6357 15.6634 46.6357 13.5607 46.6357C14.1514 45.1946 14.742 43.7771 15.3799 42.2179Z" fill="white"/>
<path d="M51.3843 42.336C51.8568 43.47 52.4474 44.8639 53.1089 46.3995C50.9827 46.3995 48.9982 46.3995 47.1082 46.3995C48.4548 45.1001 49.9195 43.7062 51.3843 42.336Z" fill="white"/>
<path d="M15.4035 52.2585C14.8365 50.8646 14.2695 49.4944 13.6316 47.9587C15.7342 47.9587 17.7423 47.9587 19.5851 47.9587C18.2857 49.3054 16.8682 50.7465 15.4035 52.2585Z" fill="white"/>
<path d="M39.4065 46.5412C40.7531 45.2182 42.1942 43.8007 43.6354 42.3832C44.1787 43.659 44.7457 45.0292 45.4072 46.5412C43.281 46.5412 41.2965 46.5412 39.4065 46.5412Z" fill="white"/>
<path d="M28.8934 37.5637C27.4286 36.1226 26.0111 34.7051 24.5464 33.2167C25.9875 32.6261 27.3814 32.0355 28.8934 31.3976C28.8934 33.5002 28.8934 35.4847 28.8934 37.5637Z" fill="white"/>
<path d="M17.6952 60.2438C17.6952 62.0865 17.6952 64.0946 17.6952 66.2209C16.2068 65.6066 14.8129 65.016 13.3009 64.4018C14.8602 62.937 16.3249 61.5431 17.6952 60.2438Z" fill="white"/>
<path d="M34.6343 69.1031C33.3349 69.6465 31.9646 70.2371 30.4526 70.875C30.4526 68.7488 30.4526 66.7643 30.4526 64.7325C31.8465 66.1973 33.2168 67.6384 34.6343 69.1031Z" fill="white"/>
<path d="M41.2256 34.0436C41.2256 32.2245 41.2256 30.24 41.2256 28.161C42.6904 28.7516 44.0843 29.3186 45.6908 29.9565C44.1079 31.3976 42.6431 32.7206 41.2256 34.0436Z" fill="white"/>
<path d="M28.0193 47.9351C26.6018 49.3999 25.2315 50.8174 23.7431 52.353C23.1289 50.841 22.5619 49.4471 21.924 47.9351C24.0503 47.9351 26.0348 47.9351 28.0193 47.9351Z" fill="white"/>
<path d="M36.0518 60.7871C36.0518 58.6373 36.0518 56.6528 36.0518 54.7391C37.3984 56.1094 38.7923 57.5269 40.2334 58.968C38.9813 59.5114 37.5874 60.102 36.0518 60.7871Z" fill="white"/>
<path d="M10.4423 35.4139C11.0565 33.9255 11.6235 32.5553 12.2378 31.0433C13.6789 32.6025 15.0255 34.0673 16.2776 35.4139C14.5766 35.4139 12.5685 35.4139 10.4423 35.4139Z" fill="white"/>
<path d="M17.8369 58.0939C17.2226 56.6291 16.6556 55.2352 16.065 53.7469C18.1913 53.7469 20.1758 53.7469 22.0658 53.7469C20.7191 55.1171 19.3253 56.5582 17.8369 58.0939Z" fill="white"/>
<path d="M11.9779 48.006C10.5604 49.4707 9.1665 50.8882 7.72538 52.4002C7.11113 50.9119 6.5205 49.4944 5.90625 48.006C8.00887 48.006 9.96975 48.006 11.9779 48.006Z" fill="white"/>
<path d="M23.0344 39.9026C21.6405 38.5087 20.2466 37.0912 18.8055 35.6265C20.1994 35.0359 21.546 34.4689 23.0344 33.8546C23.0344 35.9336 23.0344 37.9181 23.0344 39.9026Z" fill="white"/>
<path d="M30.0983 37.0676C30.0983 35.4375 30.0983 33.453 30.0983 31.3504C31.563 31.941 32.9569 32.4844 34.5161 33.0986C32.9333 34.5161 31.4449 35.8627 30.0983 37.0676Z" fill="white"/>
<path d="M42.9266 58.9444C44.3914 58.9444 46.3759 58.9444 48.4785 58.9444C47.8879 60.4091 47.3445 61.7794 46.7303 63.3386C45.36 61.7321 44.037 60.2201 42.9266 58.9444Z" fill="white"/>
<path d="M17.7187 28.3264C17.7187 30.4763 17.7187 32.4608 17.7187 34.398C16.3248 33.0514 14.8837 31.6575 13.3245 30.1455C14.8128 29.5313 16.2067 28.9406 17.7187 28.3264Z" fill="white"/>
<path d="M35.343 42.4541C35.9337 43.8244 36.5007 45.1946 37.1385 46.683C35.0359 46.683 33.0042 46.683 31.0197 46.683C32.4135 45.3364 33.8547 43.9425 35.343 42.4541Z" fill="white"/>
<path d="M7.70169 42.1234C9.21369 43.7063 10.5839 45.1238 11.9778 46.5649C10.0406 46.5649 8.05607 46.5649 5.88257 46.5649C6.49682 45.0529 7.06382 43.659 7.70169 42.1234Z" fill="white"/>
<path d="M28.8461 64.9688C28.8461 66.7406 28.8461 68.7015 28.8461 70.8041C27.3578 70.1899 25.9639 69.6229 24.5936 69.0559C26.0584 67.662 27.4995 66.2681 28.8461 64.9688Z" fill="white"/>
<path d="M43.5172 52.3058C42.0997 50.6993 40.7767 49.2109 39.5718 47.8643C41.2492 47.8643 43.2337 47.8643 45.3127 47.8643C44.7221 49.2818 44.1551 50.6756 43.5172 52.3058Z" fill="white"/>
<path d="M12.3087 63.4095C11.7181 61.9447 11.1511 60.5745 10.5368 59.1097C12.6394 59.1097 14.6003 59.1097 16.5139 59.1097C15.1673 60.5036 13.7734 61.8975 12.3087 63.4095Z" fill="white"/>
<path d="M24.5227 25.4441C25.9638 24.8535 27.3341 24.2865 28.8461 23.6722C28.8461 25.8221 28.8461 27.8066 28.8461 29.7202C27.4758 28.35 26.0347 26.9325 24.5227 25.4441Z" fill="white"/>
<path d="M29.0351 48.8092C29.0351 50.6756 29.0351 52.6837 29.0351 54.8336C27.5231 54.2194 26.1292 53.6524 24.6409 53.0381C26.2001 51.5497 27.6412 50.1559 29.0351 48.8092Z" fill="white"/>
<path d="M30.24 57.1016C31.6102 58.4955 33.0041 59.9366 34.4689 61.425C33.1459 61.9684 31.7756 62.559 30.24 63.1969C30.24 61.047 30.24 59.0389 30.24 57.1016Z" fill="white"/>
<path d="M15.9468 40.8476C16.5847 39.312 17.1517 37.9181 17.7423 36.5006C19.1835 37.989 20.5773 39.4301 21.9476 40.8476C20.0812 40.8476 18.0967 40.8476 15.9468 40.8476Z" fill="white"/>
<path d="M27.6649 46.7066C25.893 46.7066 23.9085 46.7066 21.8059 46.7066C22.4202 45.2183 22.9872 43.848 23.5542 42.4305C24.9717 43.9189 26.3655 45.36 27.6649 46.7066Z" fill="white"/>
<path d="M47.2972 47.7934C48.951 47.7934 50.9355 47.7934 53.0381 47.7934C52.4475 49.2581 51.8805 50.6284 51.2899 52.1167C49.8724 50.5811 48.5257 49.1164 47.2972 47.7934Z" fill="white"/>
<path d="M30.1218 23.625C31.563 24.2156 32.9332 24.759 34.4688 25.3733C32.9096 26.7908 31.4448 28.1138 30.1218 29.295C30.1218 27.6885 30.1218 25.704 30.1218 23.625Z" fill="white"/>
<path d="M68.04 37.7527H68.229C69.5284 36.2171 75.0566 30.0037 76.1434 28.5862C77.2065 27.216 78.0334 26.1765 78.0334 25.4677C78.0334 25.0188 77.8916 24.7117 77.5136 24.6408C77.1829 24.5463 77.0175 24.4755 77.0175 24.2156C77.0175 23.9321 77.2065 23.8376 77.6318 23.8376C78.435 23.8376 80.514 23.9557 81.5299 23.9557C82.7111 23.9557 84.7901 23.8376 85.9714 23.8376C86.3494 23.8376 86.6093 23.9321 86.6093 24.2156C86.6093 24.4991 86.4203 24.5936 86.0423 24.5936C85.5225 24.5936 84.5539 24.759 83.8451 25.0425C82.6639 25.5386 81.3881 26.4127 79.758 28.161C78.5768 29.4131 72.8595 35.6501 71.5838 37.1621C72.954 39.123 80.3723 47.9115 81.837 49.4471C83.5144 51.1953 85.2154 53.0617 87.2471 53.9358C88.3811 54.432 89.1371 54.5501 89.586 54.5501C89.8459 54.5501 90.0821 54.6446 90.0821 54.8809C90.0821 55.1644 89.8931 55.3061 89.1844 55.3061H85.9005C84.7665 55.3061 84.0814 55.3061 83.2781 55.2116C81.2228 54.999 80.2069 54.0776 78.5768 52.4947C76.8994 50.8646 69.4575 41.2492 68.6543 40.0443L68.229 39.4301H68.04V43.2101C68.04 47.0373 68.04 50.3449 68.1581 52.1167C68.229 53.2744 68.5834 54.1957 69.5284 54.3611C70.0481 54.4556 70.8986 54.5265 71.3948 54.5265C71.7019 54.5265 71.8909 54.6446 71.8909 54.8572C71.8909 55.1407 71.5838 55.2825 71.1821 55.2825C69.0559 55.2825 66.6698 55.1643 65.7248 55.1643C64.8506 55.1643 62.4645 55.2825 60.9525 55.2825C60.4564 55.2825 60.1965 55.1643 60.1965 54.8572C60.1965 54.6446 60.3383 54.5265 60.8108 54.5265C61.3778 54.5265 61.8266 54.432 62.181 54.3611C62.937 54.1957 63.126 53.2743 63.2678 52.0695C63.4568 50.3212 63.4568 47.0373 63.4568 43.1865V35.8627C63.4568 29.5312 63.4568 28.3736 63.3859 27.027C63.315 25.6095 63.0079 24.948 61.7558 24.6408C61.4486 24.5463 60.8108 24.5227 60.2674 24.5227C59.8421 24.5227 59.6295 24.4282 59.6295 24.1447C59.6295 23.8612 59.8894 23.7667 60.4564 23.7667C62.4645 23.7667 64.8506 23.8848 65.7484 23.8848C66.6461 23.8848 69.0323 23.7667 70.3316 23.7667C70.8514 23.7667 71.1349 23.8612 71.1349 24.1447C71.1349 24.4282 70.8986 24.5227 70.6151 24.5227C70.2371 24.5227 70.0009 24.57 69.552 24.6408C68.5361 24.8535 68.229 25.5622 68.1581 27.027C68.0873 28.35 68.0873 29.5312 68.0873 35.8627V37.7527H68.04Z" fill="white"/>
<path d="M97.9965 24.6881C98.1146 24.003 98.3272 23.625 98.6343 23.625C98.9415 23.625 99.1541 23.8376 99.6266 24.8771L109.738 47.8643L119.826 24.5936C120.133 23.9321 120.298 23.625 120.653 23.625C121.007 23.625 121.22 24.0266 121.314 24.8771L124.669 50.085C125 52.6601 125.378 53.8414 126.488 54.1957C127.551 54.5737 128.307 54.5974 128.78 54.5974C129.111 54.5974 129.37 54.6446 129.37 54.8809C129.37 55.2116 128.922 55.3297 128.402 55.3297C127.48 55.3297 122.354 55.2116 120.889 55.0935C120.039 55.0226 119.826 54.8809 119.826 54.6446C119.826 54.432 119.968 54.3139 120.228 54.1957C120.44 54.1249 120.558 53.5815 120.417 52.4475L118.196 34.5161H118.054L109.974 53.0145C109.124 54.9281 108.935 55.3061 108.604 55.3061C108.273 55.3061 107.895 54.5029 107.305 53.2744C106.407 51.408 103.477 45.171 103.052 44.0134C102.721 43.1629 100.501 38.0126 99.2013 34.965H99.0596L97.1223 51.1954C97.0515 51.9277 97.0042 52.4475 97.0042 53.109C97.0042 53.8886 97.4767 54.243 98.1146 54.4084C98.7761 54.5738 99.2958 54.621 99.6738 54.621C99.981 54.621 100.241 54.6919 100.241 54.9045C100.241 55.2825 99.9101 55.3534 99.3431 55.3534C97.7838 55.3534 96.1301 55.2353 95.445 55.2353C94.7362 55.2353 92.9643 55.3534 91.7831 55.3534C91.4051 55.3534 91.1216 55.2825 91.1216 54.9045C91.1216 54.6919 91.3342 54.621 91.7122 54.621C92.0193 54.621 92.2792 54.621 92.8226 54.5029C93.8621 54.2666 94.1456 52.6601 94.3346 51.2899L97.9965 24.6881Z" fill="white"/>
<path d="M134.497 50.841C130.953 47.4154 130.008 42.9739 130.008 39.0994C130.008 36.4061 130.764 31.7047 134.237 28.2082C136.836 25.5859 140.285 24.003 145.672 24.003C147.916 24.003 149.263 24.1684 150.917 24.4046C152.287 24.5936 153.444 24.9716 154.531 25.0897C154.933 25.137 155.075 25.326 155.075 25.5622C155.075 25.8694 154.956 26.3655 154.886 27.7594C154.815 29.0824 154.838 31.2559 154.767 32.0591C154.72 32.6497 154.649 32.9805 154.342 32.9805C154.059 32.9805 153.988 32.6734 153.988 32.1064C153.941 30.8779 153.492 29.484 152.57 28.4445C151.365 27.0506 148.554 25.9875 145.223 25.9875C142.081 25.9875 140.025 26.8616 138.419 28.4445C135.773 31.1141 135.088 34.8941 135.088 38.745C135.088 48.2186 141.632 52.8964 146.475 52.8964C149.688 52.8964 151.649 52.4947 153.09 50.6756C153.704 49.9196 154.177 48.762 154.319 48.0532C154.437 47.4154 154.508 47.25 154.791 47.25C155.051 47.25 155.122 47.5335 155.122 47.8406C155.122 48.3131 154.697 51.786 154.319 53.1326C154.13 53.8177 153.988 54.0067 153.374 54.2902C151.932 54.9281 149.168 55.2116 146.877 55.2116C141.939 55.188 137.781 53.9831 134.497 50.841Z" fill="white"/>
<path d="M168.423 26.5072L162.847 26.6726C160.674 26.7435 159.776 26.9561 159.209 27.8775C158.831 28.4917 158.642 28.9878 158.571 29.3186C158.5 29.6493 158.382 29.8147 158.169 29.8147C157.91 29.8147 157.839 29.6021 157.839 29.1532C157.839 28.4917 158.547 24.759 158.618 24.4282C158.736 23.8848 158.855 23.6486 159.067 23.6486C159.374 23.6486 159.752 24.0502 160.674 24.1447C161.76 24.2628 163.178 24.3573 164.406 24.3573H179.219C180.424 24.3573 181.251 24.2392 181.794 24.1447C182.361 24.0266 182.645 23.9321 182.81 23.9321C183.07 23.9321 183.117 24.1683 183.117 24.8062C183.117 25.6803 182.999 28.5153 182.999 29.5785C182.952 29.9801 182.881 30.24 182.669 30.24C182.361 30.24 182.291 30.0273 182.267 29.4131L182.22 28.9642C182.149 27.9011 181.133 26.7435 177.802 26.649L173.077 26.5308V43.4227C173.077 47.2027 173.077 50.463 173.266 52.2348C173.384 53.3925 173.596 54.2902 174.73 54.4556C175.25 54.5265 176.077 54.621 176.644 54.621C177.046 54.621 177.235 54.7391 177.235 54.9517C177.235 55.2352 176.928 55.3533 176.526 55.3533C174.045 55.3533 171.707 55.2352 170.643 55.2352C169.793 55.2352 167.43 55.3533 165.918 55.3533C165.422 55.3533 165.162 55.2352 165.162 54.9517C165.162 54.7391 165.304 54.621 165.753 54.621C166.32 54.621 166.769 54.5501 167.1 54.4556C167.856 54.2902 168.068 53.3925 168.186 52.1876C168.375 50.463 168.375 47.2027 168.375 43.4227V26.5072H168.423Z" fill="white"/>
<path d="M61.1415 69.8119C60.291 68.985 60.0784 67.9219 60.0784 67.0005C60.0784 66.3626 60.2674 65.2286 61.0942 64.4017C61.7085 63.7639 62.5354 63.3859 63.8347 63.3859C64.3781 63.3859 64.6852 63.4331 65.0869 63.4804C65.4176 63.5276 65.7011 63.6221 65.961 63.6457C66.0555 63.6457 66.0791 63.693 66.0791 63.7639C66.0791 63.8347 66.0555 63.9529 66.0319 64.2836C66.0082 64.5907 66.0319 65.1105 66.0082 65.3231C66.0082 65.4649 65.9846 65.5357 65.9137 65.5357C65.8429 65.5357 65.8192 65.4649 65.8192 65.3231C65.8192 65.0396 65.7011 64.6852 65.4885 64.449C65.205 64.1182 64.5199 63.8584 63.7402 63.8584C62.9842 63.8584 62.4881 64.071 62.1101 64.449C61.4722 65.0869 61.3069 65.9846 61.3069 66.906C61.3069 69.174 62.8661 70.2844 64.0237 70.2844C64.8034 70.2844 65.2522 70.1899 65.6066 69.741C65.7484 69.552 65.8665 69.2921 65.8901 69.1031C65.9137 68.9614 65.9374 68.9141 66.0082 68.9141C66.0791 68.9141 66.0791 68.985 66.0791 69.0559C66.0791 69.174 65.9846 70.0009 65.8901 70.3316C65.8429 70.497 65.8192 70.5442 65.6539 70.6151C65.2995 70.7569 64.638 70.8277 64.0946 70.8277C62.9134 70.8514 61.9211 70.5679 61.1415 69.8119Z" fill="white"/>
<path d="M67.0005 67.662C67.0005 66.2917 67.8746 64.4962 70.1899 64.4962C72.1035 64.4962 73.3084 65.6775 73.3084 67.5202C73.3084 69.3866 72.0799 70.8277 70.119 70.8277C67.9219 70.8277 67.0005 69.1031 67.0005 67.662ZM72.198 67.8037C72.198 66.0082 71.2294 64.8979 70.0009 64.8979C69.1504 64.8979 68.1581 65.394 68.1581 67.4021C68.1581 69.0795 69.0322 70.3789 70.4497 70.3789C70.9695 70.3789 72.198 70.119 72.198 67.8037Z" fill="white"/>
<path d="M75.9308 68.3708C75.9308 69.4103 75.9308 69.93 76.0962 70.0718C76.2143 70.1899 76.5214 70.2371 77.112 70.2371C77.5137 70.2371 77.8208 70.2371 78.0098 70.0009C78.1043 69.9064 78.1752 69.6701 78.1988 69.5048C78.1988 69.4339 78.2224 69.3866 78.2933 69.3866C78.3405 69.3866 78.3642 69.4811 78.3642 69.5756C78.3642 69.6701 78.3169 70.2608 78.2461 70.497C78.1988 70.686 78.1516 70.7096 77.7499 70.7096C77.2066 70.7096 76.7577 70.7096 76.3797 70.686C76.0017 70.686 75.6709 70.6624 75.3638 70.6624C75.2693 70.6624 75.1039 70.6624 74.9386 70.6624C74.7496 70.6624 74.5606 70.686 74.4188 70.686C74.3243 70.686 74.277 70.6624 74.277 70.5915C74.277 70.5443 74.3007 70.497 74.3952 70.497C74.5133 70.497 74.5842 70.497 74.6551 70.4734C74.8204 70.4261 74.8441 70.2844 74.8913 70.0481C74.9149 69.6938 74.9149 69.0559 74.9149 68.3235V66.906C74.9149 65.6775 74.9149 65.4413 74.9149 65.1814C74.8913 64.8979 74.8204 64.827 74.5842 64.7325C74.5133 64.7089 74.4188 64.7089 74.3243 64.7089C74.2298 64.7089 74.2062 64.6853 74.2062 64.6144C74.2062 64.5671 74.2534 64.5435 74.3715 64.5435C74.7259 64.5435 75.2221 64.5671 75.4111 64.5671C75.6001 64.5671 76.2143 64.5435 76.5214 64.5435C76.6395 64.5435 76.6868 64.5671 76.6868 64.6144C76.6868 64.6616 76.6396 64.7089 76.5451 64.7089C76.4506 64.7089 76.3324 64.7089 76.2615 64.7325C76.0489 64.7798 76.0017 64.8743 75.9781 65.1814C75.9544 65.4413 75.9544 65.6775 75.9544 66.906V68.3708H75.9308Z" fill="white"/>
<path d="M80.9157 68.3708C80.9157 69.4103 80.9157 69.93 81.081 70.0718C81.1992 70.1899 81.5063 70.2371 82.0969 70.2371C82.4985 70.2371 82.8057 70.2371 82.9947 70.0009C83.0892 69.9064 83.16 69.6701 83.1837 69.5048C83.1837 69.4339 83.2073 69.3866 83.2782 69.3866C83.3254 69.3866 83.349 69.4811 83.349 69.5756C83.349 69.6701 83.3018 70.2608 83.2309 70.497C83.1837 70.686 83.1364 70.7096 82.7348 70.7096C82.1914 70.7096 81.7425 70.7096 81.3645 70.686C80.9865 70.686 80.6558 70.6624 80.3487 70.6624C80.2542 70.6624 80.0888 70.6624 79.9234 70.6624C79.7344 70.6624 79.5454 70.686 79.4037 70.686C79.3092 70.686 79.2619 70.6624 79.2619 70.5915C79.2619 70.5443 79.2855 70.497 79.38 70.497C79.4982 70.497 79.569 70.497 79.6399 70.4734C79.8053 70.4261 79.8289 70.2844 79.8762 70.0481C79.8998 69.6938 79.8998 69.0559 79.8998 68.3235V66.906C79.8998 65.6775 79.8998 65.4413 79.8998 65.1814C79.8762 64.8979 79.8053 64.827 79.569 64.7325C79.4982 64.7089 79.4037 64.7089 79.3092 64.7089C79.2147 64.7089 79.191 64.6853 79.191 64.6144C79.191 64.5671 79.2383 64.5435 79.3564 64.5435C79.7108 64.5435 80.2069 64.5671 80.3959 64.5671C80.5849 64.5671 81.1992 64.5435 81.5063 64.5435C81.6244 64.5435 81.6717 64.5671 81.6717 64.6144C81.6717 64.6616 81.6244 64.7089 81.5299 64.7089C81.4354 64.7089 81.3173 64.7089 81.2464 64.7325C81.0338 64.7798 80.9865 64.8743 80.9629 65.1814C80.9393 65.4413 80.9393 65.6775 80.9393 66.906V68.3708H80.9157Z" fill="white"/>
<path d="M84.861 66.9533C84.861 65.7248 84.861 65.4886 84.861 65.2287C84.8374 64.9452 84.7665 64.8743 84.5302 64.7798C84.4594 64.7562 84.3412 64.7562 84.2231 64.7562C84.1522 64.7562 84.105 64.7326 84.105 64.6617C84.105 64.6144 84.1759 64.5908 84.2704 64.5908C84.672 64.5908 85.1445 64.6144 85.3807 64.6144C85.617 64.6144 87.318 64.6144 87.4597 64.6144C87.6015 64.6144 87.7196 64.5672 87.7905 64.5672C87.8377 64.5672 87.885 64.5199 87.9086 64.5199C87.9559 64.5199 87.9559 64.5672 87.9559 64.5908C87.9559 64.6381 87.9086 64.7326 87.885 65.1106C87.885 65.2051 87.8614 65.5594 87.8377 65.6539C87.8377 65.7012 87.8141 65.7957 87.7432 65.7957C87.696 65.7957 87.6724 65.7484 87.6724 65.7012C87.6724 65.6539 87.6724 65.5122 87.6251 65.4177C87.5542 65.2759 87.507 65.1578 87.129 65.1342C87.0109 65.1106 86.0895 65.0869 85.9241 65.0869C85.9005 65.0869 85.8769 65.1105 85.8769 65.1578V67.1659C85.8769 67.2132 85.8769 67.2604 85.9241 67.2604C86.0895 67.2604 87.0817 67.2604 87.2471 67.2368C87.4361 67.2132 87.5306 67.1896 87.6015 67.1187C87.6724 67.0714 87.696 67.0242 87.7196 67.0242C87.7432 67.0242 87.7905 67.0714 87.7905 67.1187C87.7905 67.1659 87.7669 67.3077 87.7196 67.7093C87.696 67.8747 87.696 68.2054 87.696 68.2527C87.696 68.3236 87.696 68.4417 87.6251 68.4417C87.5779 68.4417 87.5542 68.4181 87.5542 68.3708C87.5542 68.2763 87.5542 68.1818 87.5306 68.0873C87.4834 67.9219 87.3889 67.8038 87.1054 67.7802C86.9636 67.7566 86.0895 67.7329 85.9005 67.7329C85.8769 67.7329 85.8532 67.7802 85.8532 67.8274V68.4653C85.8532 68.7488 85.8532 69.4339 85.8532 69.6702C85.8769 70.2136 86.1131 70.3553 86.8927 70.3553C87.0817 70.3553 87.4125 70.3553 87.6015 70.2608C87.7905 70.1663 87.885 70.0009 87.9322 69.6702C87.9559 69.5757 87.9559 69.5521 88.0267 69.5521C88.0976 69.5521 88.0976 69.6466 88.0976 69.7411C88.0976 69.9301 88.0267 70.4734 88.0031 70.6388C87.9559 70.8514 87.885 70.8514 87.6015 70.8514C87.0345 70.8514 86.562 70.8514 86.2076 70.8278C85.8296 70.8278 85.5461 70.8042 85.3335 70.8042C85.239 70.8042 85.0736 70.8042 84.9082 70.8042C84.7192 70.8042 84.5302 70.8278 84.3885 70.8278C84.294 70.8278 84.2467 70.8042 84.2467 70.7333C84.2467 70.6861 84.2704 70.6388 84.3649 70.6388C84.483 70.6388 84.5539 70.6388 84.6247 70.6152C84.7901 70.5679 84.8137 70.4262 84.861 70.1899C84.8846 69.8356 84.8846 69.1977 84.8846 68.4653V66.9533H84.861Z" fill="white"/>
<path d="M94.6181 70.1899C94.6181 70.4025 94.6182 70.4261 94.5237 70.4734C94.0039 70.7569 93.2715 70.8277 92.6573 70.8277C90.7909 70.8277 89.1371 69.9064 89.1371 67.662C89.1371 66.3626 89.775 65.4649 90.4601 65.016C91.1925 64.5435 91.8777 64.4962 92.5155 64.4962C93.0353 64.4962 93.7204 64.5907 93.8621 64.638C94.0275 64.6616 94.2874 64.7089 94.4764 64.7325C94.5709 64.7325 94.5709 64.7797 94.5709 64.827C94.5709 64.9215 94.5237 65.1341 94.5237 66.15C94.5237 66.2681 94.4764 66.339 94.4292 66.339C94.3819 66.339 94.3583 66.2917 94.3583 66.2445C94.3346 66.0555 94.2874 65.7956 94.0984 65.583C93.8621 65.3231 93.2951 64.9687 92.4446 64.9687C92.0194 64.9687 91.4997 64.9687 90.9799 65.4412C90.5547 65.8192 90.2712 66.4335 90.2712 67.4021C90.2712 69.1504 91.287 70.4025 92.9171 70.4025C93.1061 70.4025 93.2715 70.4025 93.4605 70.308C93.5787 70.2607 93.6023 70.1662 93.6023 70.0245V69.2921C93.6023 68.8905 93.6023 68.5834 93.6023 68.3471C93.6023 68.0636 93.5078 67.9927 93.2715 67.8982C93.2006 67.8746 93.0825 67.8746 92.988 67.8746C92.9172 67.8746 92.8699 67.8274 92.8699 67.7801C92.8699 67.7092 92.9408 67.7092 93.0353 67.7092C93.4369 67.7092 93.9803 67.7329 94.1929 67.7329C94.4292 67.7329 94.8308 67.7092 95.0906 67.7092C95.1851 67.7092 95.256 67.7092 95.256 67.7801C95.256 67.8274 95.2088 67.8746 95.1615 67.8746C95.0906 67.8746 95.0434 67.8746 94.9489 67.8982C94.7363 67.9455 94.6654 68.04 94.6654 68.3471C94.6654 68.5834 94.6654 68.9141 94.6654 69.3157V70.1899H94.6181Z" fill="white"/>
<path d="M96.6735 66.9533C96.6735 65.7248 96.6735 65.4886 96.6735 65.2287C96.6499 64.9452 96.579 64.8743 96.3427 64.7798C96.2719 64.7562 96.1537 64.7562 96.0356 64.7562C95.9647 64.7562 95.9175 64.7326 95.9175 64.6617C95.9175 64.6144 95.9884 64.5908 96.0829 64.5908C96.4845 64.5908 96.957 64.6144 97.1932 64.6144C97.4295 64.6144 99.1305 64.6144 99.2722 64.6144C99.414 64.6144 99.5321 64.5672 99.603 64.5672C99.6502 64.5672 99.6975 64.5199 99.7211 64.5199C99.7684 64.5199 99.7684 64.5672 99.7684 64.5908C99.7684 64.6381 99.7211 64.7326 99.6975 65.1106C99.6975 65.2051 99.6739 65.5594 99.6502 65.6539C99.6502 65.7012 99.6266 65.7957 99.5557 65.7957C99.5085 65.7957 99.4849 65.7484 99.4849 65.7012C99.4849 65.6539 99.4849 65.5122 99.4376 65.4177C99.3667 65.2759 99.3195 65.1578 98.9415 65.1342C98.8234 65.1106 97.902 65.0869 97.7366 65.0869C97.713 65.0869 97.6894 65.1105 97.6894 65.1578V67.1659C97.6894 67.2132 97.6894 67.2604 97.7366 67.2604C97.902 67.2604 98.8942 67.2604 99.0596 67.2368C99.2486 67.2132 99.3431 67.1896 99.414 67.1187C99.4849 67.0714 99.5085 67.0242 99.5321 67.0242C99.5557 67.0242 99.603 67.0714 99.603 67.1187C99.603 67.1659 99.5794 67.3077 99.5321 67.7093C99.5085 67.8747 99.5085 68.2054 99.5085 68.2527C99.5085 68.3236 99.5085 68.4417 99.4376 68.4417C99.3904 68.4417 99.3667 68.4181 99.3667 68.3708C99.3667 68.2763 99.3667 68.1818 99.3431 68.0873C99.2959 67.9219 99.2014 67.8038 98.9179 67.7802C98.7761 67.7566 97.902 67.7329 97.713 67.7329C97.6894 67.7329 97.6657 67.7802 97.6657 67.8274V68.4653C97.6657 68.7488 97.6657 69.4339 97.6657 69.6702C97.6894 70.2136 97.9256 70.3553 98.7052 70.3553C98.8942 70.3553 99.225 70.3553 99.414 70.2608C99.603 70.1663 99.6975 70.0009 99.7447 69.6702C99.7684 69.5757 99.7684 69.5521 99.8392 69.5521C99.9101 69.5521 99.9101 69.6466 99.9101 69.7411C99.9101 69.9301 99.8392 70.4734 99.8156 70.6388C99.7684 70.8514 99.6975 70.8514 99.414 70.8514C98.847 70.8514 98.3745 70.8514 98.0201 70.8278C97.6421 70.8278 97.3586 70.8042 97.146 70.8042C97.0515 70.8042 96.8861 70.8042 96.7207 70.8042C96.5317 70.8042 96.3427 70.8278 96.201 70.8278C96.1065 70.8278 96.0592 70.8042 96.0592 70.7333C96.0592 70.6861 96.0829 70.6388 96.1774 70.6388C96.2955 70.6388 96.3664 70.6388 96.4372 70.6152C96.6026 70.5679 96.6262 70.4262 96.6735 70.1899C96.6971 69.8356 96.6971 69.1977 96.6971 68.4653V66.9533H96.6735Z" fill="white"/>
<path d="M103.856 67.662C103.856 66.2917 104.73 64.4962 107.045 64.4962C108.959 64.4962 110.163 65.6775 110.163 67.5202C110.163 69.3866 108.935 70.8277 106.974 70.8277C104.753 70.8277 103.856 69.1031 103.856 67.662ZM109.029 67.8037C109.029 66.0082 108.061 64.8979 106.832 64.8979C105.982 64.8979 104.99 65.394 104.99 67.4021C104.99 69.0795 105.864 70.3789 107.281 70.3789C107.825 70.3789 109.029 70.119 109.029 67.8037Z" fill="white"/>
<path d="M112.762 68.3944C112.762 69.1741 112.762 69.7411 112.809 70.0954C112.833 70.3317 112.88 70.4971 113.116 70.5207C113.211 70.5443 113.376 70.5443 113.494 70.5443C113.589 70.5443 113.613 70.5916 113.613 70.6388C113.613 70.6861 113.565 70.7333 113.447 70.7333C112.951 70.7333 112.431 70.7097 112.219 70.7097C112.03 70.7097 111.534 70.7333 111.25 70.7333C111.156 70.7333 111.085 70.7097 111.085 70.6388C111.085 70.5916 111.108 70.5443 111.203 70.5443C111.321 70.5443 111.392 70.5443 111.463 70.5207C111.628 70.4734 111.652 70.3317 111.699 70.0954C111.723 69.7411 111.723 69.1504 111.723 68.3708V66.9533C111.723 65.7248 111.723 65.4886 111.723 65.2287C111.699 64.9452 111.628 64.8507 111.392 64.7798C111.321 64.7562 111.203 64.7562 111.085 64.7562C111.014 64.7562 110.967 64.7326 110.967 64.6617C110.967 64.6144 111.037 64.5908 111.156 64.5908C111.534 64.5908 112.03 64.6144 112.242 64.6144C112.526 64.6144 114.227 64.6144 114.416 64.6144C114.558 64.6144 114.652 64.5908 114.723 64.5672C114.77 64.5672 114.794 64.5199 114.841 64.5199C114.865 64.5199 114.888 64.5672 114.888 64.5908C114.888 64.6381 114.865 64.7326 114.817 64.9452C114.817 65.0397 114.794 65.5122 114.794 65.6067C114.794 65.6776 114.77 65.7721 114.723 65.7721C114.676 65.7721 114.628 65.7248 114.628 65.6303C114.628 65.5594 114.628 65.4413 114.581 65.3232C114.534 65.2051 114.392 65.0869 114.085 65.0869L112.833 65.0633C112.786 65.0633 112.762 65.0869 112.762 65.1814V67.1423C112.762 67.1896 112.762 67.2132 112.809 67.2132H113.872C113.991 67.2132 114.109 67.2132 114.227 67.2132C114.369 67.2132 114.487 67.1659 114.558 67.0714C114.605 67.0242 114.628 66.9769 114.652 66.9769C114.676 66.9769 114.699 67.0005 114.699 67.0478C114.699 67.095 114.676 67.3077 114.628 67.5676C114.605 67.7329 114.605 68.1109 114.605 68.1582C114.605 68.2291 114.605 68.3472 114.51 68.3472C114.463 68.3472 114.439 68.2999 114.439 68.229C114.439 68.1818 114.416 68.0873 114.392 67.9928C114.369 67.8747 114.274 67.7093 114.038 67.7093C113.849 67.6857 112.951 67.6857 112.809 67.6857C112.786 67.6857 112.762 67.6857 112.762 67.7565V68.3944Z" fill="white"/>
<path d="M119.85 66.2918C119.85 64.8506 119.85 64.5671 119.826 64.2836C119.802 63.9529 119.732 63.8111 119.448 63.7403C119.377 63.7166 119.235 63.7166 119.117 63.7166C119.023 63.7166 118.976 63.693 118.976 63.6221C118.976 63.5513 119.046 63.5276 119.165 63.5276C119.401 63.5276 119.661 63.5276 119.873 63.5276C120.11 63.5276 120.299 63.5513 120.417 63.5513C120.7 63.5513 122.425 63.5513 122.59 63.5513C122.756 63.5276 122.897 63.504 122.968 63.504C123.015 63.504 123.063 63.4568 123.11 63.4568C123.157 63.4568 123.157 63.504 123.157 63.5513C123.157 63.6221 123.11 63.7403 123.086 64.1655C123.086 64.26 123.063 64.6853 123.039 64.8034C123.039 64.8506 123.015 64.8979 122.945 64.8979C122.874 64.8979 122.874 64.8506 122.874 64.7561C122.874 64.6853 122.874 64.5199 122.826 64.4254C122.756 64.26 122.685 64.1419 122.236 64.071C122.094 64.0474 121.173 64.0238 121.007 64.0238C120.96 64.0238 120.936 64.0474 120.936 64.1183V66.528C120.936 66.5989 120.936 66.6225 121.007 66.6225C121.196 66.6225 122.189 66.6225 122.401 66.5989C122.614 66.5753 122.732 66.5516 122.826 66.4571C122.897 66.3863 122.921 66.339 122.968 66.339C122.992 66.339 123.039 66.3626 123.039 66.4099C123.039 66.4571 123.015 66.6225 122.968 67.095C122.968 67.284 122.945 67.662 122.945 67.7329C122.945 67.8038 122.945 67.9219 122.874 67.9219C122.803 67.9219 122.803 67.8746 122.803 67.8274C122.803 67.7329 122.803 67.6148 122.779 67.473C122.732 67.284 122.614 67.1423 122.283 67.095C122.118 67.0714 121.267 67.0714 121.055 67.0714C121.007 67.0714 121.007 67.1186 121.007 67.1659V67.9219C121.007 68.2526 121.007 69.1268 121.007 69.3866C121.031 70.0481 121.173 70.1899 122.047 70.1899C122.283 70.1899 122.637 70.1899 122.85 70.0718C123.086 69.9536 123.181 69.7646 123.228 69.363C123.252 69.2685 123.252 69.2213 123.323 69.2213C123.393 69.2213 123.393 69.2921 123.393 69.3866C123.393 69.5993 123.323 70.2608 123.275 70.4498C123.204 70.686 123.134 70.686 122.803 70.686C122.165 70.686 121.669 70.6624 121.314 70.6624C120.936 70.6388 120.677 70.6388 120.417 70.6388C120.322 70.6388 120.133 70.6388 119.921 70.6388C119.732 70.6388 119.495 70.6624 119.33 70.6624C119.212 70.6624 119.165 70.6388 119.165 70.5679C119.165 70.5206 119.188 70.497 119.306 70.497C119.424 70.497 119.543 70.4734 119.613 70.4498C119.779 70.4025 119.826 70.2135 119.873 69.93C119.921 69.5284 119.921 68.7724 119.921 67.8983V66.2918H119.85Z" fill="white"/>
<path d="M125.732 69.6229C125.756 70.2608 125.85 70.4498 125.992 70.497C126.11 70.5443 126.276 70.5443 126.394 70.5443C126.488 70.5443 126.512 70.5915 126.512 70.6388C126.512 70.7096 126.441 70.7333 126.347 70.7333C125.85 70.7333 125.496 70.7096 125.354 70.7096C125.283 70.7096 124.929 70.7333 124.527 70.7333C124.433 70.7333 124.362 70.7333 124.362 70.6388C124.362 70.5915 124.409 70.5443 124.48 70.5443C124.575 70.5443 124.716 70.5443 124.835 70.497C125.024 70.4498 125.071 70.2135 125.071 69.5284L125.142 64.7325C125.142 64.5671 125.189 64.449 125.26 64.449C125.354 64.449 125.449 64.5671 125.591 64.7089C125.685 64.8034 126.819 66.1028 127.929 67.284C128.449 67.851 129.465 68.985 129.583 69.1031H129.607L129.536 65.5121C129.536 65.016 129.465 64.8743 129.276 64.8034C129.158 64.7561 128.993 64.7561 128.874 64.7561C128.78 64.7561 128.756 64.7089 128.756 64.6616C128.756 64.5908 128.827 64.5908 128.945 64.5908C129.347 64.5908 129.749 64.6144 129.914 64.6144C130.008 64.6144 130.292 64.5908 130.67 64.5908C130.764 64.5908 130.835 64.5908 130.835 64.6616C130.835 64.7089 130.788 64.7561 130.717 64.7561C130.646 64.7561 130.575 64.7561 130.481 64.7798C130.268 64.8506 130.221 64.9924 130.197 65.4413L130.103 70.5443C130.103 70.7333 130.032 70.8041 129.985 70.8041C129.867 70.8041 129.749 70.7096 129.678 70.6388C129.205 70.1426 128.26 69.1504 127.457 68.2999C126.63 67.4258 125.827 66.4335 125.685 66.2918H125.661L125.732 69.6229Z" fill="white"/>
<path d="M137.167 70.1899C137.167 70.4025 137.167 70.4261 137.072 70.4734C136.553 70.7569 135.82 70.8277 135.206 70.8277C133.34 70.8277 131.686 69.9064 131.686 67.662C131.686 66.3626 132.324 65.4649 133.009 65.016C133.741 64.5435 134.426 64.4962 135.064 64.4962C135.584 64.4962 136.269 64.5907 136.411 64.638C136.576 64.6616 136.836 64.7089 137.025 64.7325C137.12 64.7325 137.12 64.7797 137.12 64.827C137.12 64.9215 137.072 65.1341 137.072 66.15C137.072 66.2681 137.025 66.339 136.978 66.339C136.931 66.339 136.907 66.2917 136.907 66.2445C136.883 66.0555 136.836 65.7956 136.647 65.583C136.411 65.3231 135.844 64.9687 134.993 64.9687C134.568 64.9687 134.048 64.9687 133.529 65.4412C133.103 65.8192 132.82 66.4335 132.82 67.4021C132.82 69.1504 133.836 70.4025 135.466 70.4025C135.655 70.4025 135.82 70.4025 136.009 70.308C136.127 70.2607 136.151 70.1662 136.151 70.0245V69.2921C136.151 68.8905 136.151 68.5834 136.151 68.3471C136.151 68.0636 136.056 67.9927 135.82 67.8982C135.749 67.8746 135.631 67.8746 135.537 67.8746C135.466 67.8746 135.419 67.8274 135.419 67.7801C135.419 67.7092 135.489 67.7092 135.584 67.7092C135.986 67.7092 136.529 67.7329 136.742 67.7329C136.978 67.7329 137.379 67.7092 137.639 67.7092C137.734 67.7092 137.805 67.7092 137.805 67.7801C137.805 67.8274 137.757 67.8746 137.71 67.8746C137.639 67.8746 137.592 67.8746 137.498 67.8982C137.285 67.9455 137.214 68.04 137.214 68.3471C137.214 68.5834 137.214 68.9141 137.214 69.3157V70.1899H137.167Z" fill="white"/>
<path d="M139.222 66.9533C139.222 65.7248 139.222 65.4885 139.222 65.2286C139.198 64.9451 139.128 64.8506 138.962 64.8034C138.868 64.7798 138.773 64.7561 138.679 64.7561C138.608 64.7561 138.561 64.7325 138.561 64.6616C138.561 64.6144 138.631 64.5908 138.75 64.5908C139.033 64.5908 139.553 64.6144 139.765 64.6144C139.954 64.6144 140.451 64.5908 140.734 64.5908C140.829 64.5908 140.899 64.6144 140.899 64.6616C140.899 64.7325 140.852 64.7561 140.781 64.7561C140.71 64.7561 140.64 64.7561 140.545 64.7798C140.332 64.827 140.285 64.9215 140.262 65.2286C140.238 65.4885 140.238 65.7248 140.238 66.9533V68.3708C140.238 69.1504 140.238 69.7883 140.262 70.1426C140.285 70.3553 140.332 70.4734 140.569 70.5206C140.663 70.5443 140.852 70.5443 140.947 70.5443C141.041 70.5443 141.065 70.5915 141.065 70.6388C141.065 70.686 140.994 70.7333 140.923 70.7333C140.427 70.7333 139.907 70.7096 139.695 70.7096C139.529 70.7096 139.009 70.7333 138.702 70.7333C138.608 70.7333 138.561 70.7096 138.561 70.6388C138.561 70.5915 138.584 70.5443 138.679 70.5443C138.797 70.5443 138.868 70.5443 138.939 70.5206C139.104 70.4734 139.128 70.3789 139.175 70.119C139.198 69.7883 139.198 69.1268 139.198 68.3471V66.9533H139.222Z" fill="white"/>
<path d="M143.427 69.6229C143.451 70.2608 143.546 70.4498 143.687 70.497C143.805 70.5443 143.971 70.5443 144.089 70.5443C144.183 70.5443 144.207 70.5915 144.207 70.6388C144.207 70.7096 144.136 70.7333 144.042 70.7333C143.546 70.7333 143.191 70.7096 143.049 70.7096C142.979 70.7096 142.624 70.7333 142.223 70.7333C142.128 70.7333 142.057 70.7333 142.057 70.6388C142.057 70.5915 142.104 70.5443 142.175 70.5443C142.27 70.5443 142.412 70.5443 142.53 70.497C142.719 70.4498 142.766 70.2135 142.766 69.5284L142.837 64.7325C142.837 64.5671 142.884 64.449 142.955 64.449C143.049 64.449 143.144 64.5671 143.286 64.7089C143.38 64.8034 144.514 66.1028 145.625 67.284C146.144 67.851 147.16 68.985 147.278 69.1031H147.302L147.231 65.5121C147.231 65.016 147.16 64.8743 146.971 64.8034C146.853 64.7561 146.688 64.7561 146.57 64.7561C146.475 64.7561 146.451 64.7089 146.451 64.6616C146.451 64.5908 146.522 64.5908 146.64 64.5908C147.042 64.5908 147.444 64.6144 147.609 64.6144C147.704 64.6144 147.987 64.5908 148.365 64.5908C148.46 64.5908 148.53 64.5908 148.53 64.6616C148.53 64.7089 148.483 64.7561 148.412 64.7561C148.341 64.7561 148.271 64.7561 148.176 64.7798C147.963 64.8506 147.916 64.9924 147.893 65.4413L147.798 70.5443C147.798 70.7333 147.727 70.8041 147.68 70.8041C147.562 70.8041 147.444 70.7096 147.373 70.6388C146.9 70.1426 145.955 69.1504 145.152 68.2999C144.325 67.4258 143.522 66.4335 143.38 66.2918H143.357L143.427 69.6229Z" fill="white"/>
<path d="M150.35 66.9533C150.35 65.7248 150.35 65.4886 150.35 65.2287C150.326 64.9452 150.255 64.8743 150.019 64.7798C149.948 64.7562 149.83 64.7562 149.712 64.7562C149.641 64.7562 149.594 64.7326 149.594 64.6617C149.594 64.6144 149.664 64.5908 149.759 64.5908C150.161 64.5908 150.633 64.6144 150.869 64.6144C151.105 64.6144 152.807 64.6144 152.948 64.6144C153.09 64.6144 153.208 64.5672 153.279 64.5672C153.326 64.5672 153.373 64.5199 153.397 64.5199C153.444 64.5199 153.444 64.5672 153.444 64.5908C153.444 64.6381 153.397 64.7326 153.374 65.1106C153.374 65.2051 153.35 65.5594 153.326 65.6539C153.326 65.7012 153.303 65.7957 153.232 65.7957C153.184 65.7957 153.161 65.7484 153.161 65.7012C153.161 65.6539 153.161 65.5122 153.114 65.4177C153.043 65.2759 152.996 65.1578 152.618 65.1342C152.499 65.1106 151.578 65.0869 151.413 65.0869C151.389 65.0869 151.365 65.1105 151.365 65.1578V67.1659C151.365 67.2132 151.365 67.2604 151.413 67.2604C151.578 67.2604 152.57 67.2604 152.736 67.2368C152.925 67.2132 153.019 67.1896 153.09 67.1187C153.161 67.0714 153.185 67.0242 153.208 67.0242C153.232 67.0242 153.279 67.0714 153.279 67.1187C153.279 67.1659 153.255 67.3077 153.208 67.7093C153.185 67.8747 153.185 68.2054 153.185 68.2527C153.185 68.3236 153.184 68.4417 153.114 68.4417C153.066 68.4417 153.043 68.4181 153.043 68.3708C153.043 68.2763 153.043 68.1818 153.019 68.0873C152.972 67.9219 152.877 67.8038 152.594 67.7802C152.452 67.7566 151.602 67.7329 151.389 67.7329C151.365 67.7329 151.342 67.7802 151.342 67.8274V68.4653C151.342 68.7488 151.342 69.4339 151.342 69.6702C151.365 70.2136 151.602 70.3553 152.381 70.3553C152.57 70.3553 152.901 70.3553 153.09 70.2608C153.279 70.1663 153.374 70.0009 153.421 69.6702C153.444 69.5757 153.444 69.5521 153.515 69.5521C153.586 69.5521 153.586 69.6466 153.586 69.7411C153.586 69.9301 153.515 70.4734 153.492 70.6388C153.444 70.8514 153.374 70.8514 153.09 70.8514C152.523 70.8514 152.05 70.8514 151.696 70.8278C151.318 70.8278 151.035 70.8042 150.822 70.8042C150.728 70.8042 150.562 70.8042 150.397 70.8042C150.208 70.8042 150.019 70.8278 149.877 70.8278C149.783 70.8278 149.735 70.8042 149.735 70.7333C149.735 70.6861 149.759 70.6388 149.853 70.6388C149.972 70.6388 150.042 70.6388 150.113 70.6152C150.279 70.5679 150.302 70.4262 150.35 70.1899C150.373 69.8356 150.373 69.1977 150.373 68.4653V66.9533H150.35Z" fill="white"/>
<path d="M155.358 66.9533C155.358 65.7248 155.358 65.4886 155.358 65.2287C155.334 64.9452 155.264 64.8743 155.027 64.7798C154.956 64.7562 154.838 64.7562 154.72 64.7562C154.649 64.7562 154.602 64.7326 154.602 64.6617C154.602 64.6144 154.673 64.5908 154.767 64.5908C155.169 64.5908 155.642 64.6144 155.878 64.6144C156.114 64.6144 157.815 64.6144 157.957 64.6144C158.099 64.6144 158.217 64.5672 158.288 64.5672C158.335 64.5672 158.382 64.5199 158.406 64.5199C158.453 64.5199 158.453 64.5672 158.453 64.5908C158.453 64.6381 158.406 64.7326 158.382 65.1106C158.382 65.2051 158.358 65.5594 158.335 65.6539C158.335 65.7012 158.311 65.7957 158.24 65.7957C158.193 65.7957 158.169 65.7484 158.169 65.7012C158.169 65.6539 158.169 65.5122 158.122 65.4177C158.051 65.2759 158.004 65.1578 157.626 65.1342C157.508 65.1106 156.587 65.0869 156.421 65.0869C156.398 65.0869 156.374 65.1105 156.374 65.1578V67.1659C156.374 67.2132 156.374 67.2604 156.421 67.2604C156.587 67.2604 157.579 67.2604 157.744 67.2368C157.933 67.2132 158.028 67.1896 158.099 67.1187C158.169 67.0714 158.193 67.0242 158.217 67.0242C158.24 67.0242 158.288 67.0714 158.288 67.1187C158.288 67.1659 158.264 67.3077 158.217 67.7093C158.193 67.8747 158.193 68.2054 158.193 68.2527C158.193 68.3236 158.193 68.4417 158.122 68.4417C158.075 68.4417 158.051 68.4181 158.051 68.3708C158.051 68.2763 158.051 68.1818 158.028 68.0873C157.98 67.9219 157.886 67.8038 157.602 67.7802C157.461 67.7566 156.61 67.7329 156.398 67.7329C156.374 67.7329 156.35 67.7802 156.35 67.8274V68.4653C156.35 68.7488 156.35 69.4339 156.35 69.6702C156.374 70.2136 156.61 70.3553 157.39 70.3553C157.579 70.3553 157.91 70.3553 158.099 70.2608C158.288 70.1663 158.382 70.0009 158.429 69.6702C158.453 69.5757 158.453 69.5521 158.524 69.5521C158.595 69.5521 158.595 69.6466 158.595 69.7411C158.595 69.9301 158.524 70.4734 158.5 70.6388C158.453 70.8514 158.382 70.8514 158.099 70.8514C157.532 70.8514 157.059 70.8514 156.705 70.8278C156.327 70.8278 156.043 70.8042 155.831 70.8042C155.736 70.8042 155.571 70.8042 155.405 70.8042C155.216 70.8042 155.027 70.8278 154.886 70.8278C154.791 70.8278 154.744 70.8042 154.744 70.7333C154.744 70.6861 154.767 70.6388 154.862 70.6388C154.98 70.6388 155.051 70.6388 155.122 70.6152C155.287 70.5679 155.311 70.4262 155.358 70.1899C155.382 69.8356 155.382 69.1977 155.382 68.4653V66.9533H155.358Z" fill="white"/>
<path d="M160.367 66.9533C160.367 65.7248 160.367 65.4885 160.367 65.2286C160.343 64.9451 160.272 64.8743 160.036 64.7798C159.965 64.7561 159.847 64.7561 159.729 64.7561C159.658 64.7561 159.611 64.7325 159.611 64.6616C159.611 64.6144 159.681 64.5908 159.776 64.5908C160.178 64.5908 160.65 64.6144 160.815 64.6144C161.075 64.6144 161.76 64.5908 161.997 64.5908C162.493 64.5908 163.036 64.638 163.438 64.9451C163.65 65.1105 163.981 65.5121 163.981 66.0555C163.981 66.6461 163.674 67.1895 162.918 67.851C163.603 68.7724 164.123 69.5048 164.595 70.0009C165.021 70.4734 165.281 70.497 165.399 70.5443C165.47 70.5679 165.517 70.5679 165.588 70.5679C165.659 70.5679 165.682 70.6151 165.682 70.6624C165.682 70.7333 165.635 70.7569 165.54 70.7569H164.808C164.383 70.7569 164.17 70.7096 163.981 70.5915C163.65 70.4025 163.367 70.0245 162.942 69.4103C162.635 68.9614 162.327 68.418 162.233 68.2999C162.186 68.2526 162.138 68.2526 162.091 68.2526L161.406 68.229C161.382 68.229 161.335 68.2526 161.335 68.2999V68.418C161.335 69.174 161.335 69.7883 161.382 70.1426C161.406 70.3789 161.453 70.5443 161.666 70.5679C161.784 70.5915 161.949 70.5915 162.044 70.5915C162.115 70.5915 162.138 70.6388 162.138 70.686C162.138 70.7333 162.068 70.7805 161.973 70.7805C161.524 70.7805 160.91 70.7569 160.792 70.7569C160.65 70.7569 160.154 70.7805 159.847 70.7805C159.752 70.7805 159.705 70.7569 159.705 70.686C159.705 70.6388 159.729 70.5915 159.823 70.5915C159.941 70.5915 160.012 70.5915 160.083 70.5679C160.248 70.5206 160.272 70.3789 160.319 70.1426C160.343 69.7883 160.343 69.1504 160.343 68.418V66.9533H160.367ZM161.335 67.5675C161.335 67.662 161.359 67.6856 161.406 67.7093C161.571 67.7565 161.784 67.7801 161.997 67.7801C162.304 67.7801 162.398 67.7565 162.54 67.6384C162.776 67.4494 163.036 67.095 163.036 66.4335C163.036 65.2995 162.327 64.9924 161.879 64.9924C161.69 64.9924 161.501 64.9924 161.43 65.016C161.382 65.0396 161.359 65.0633 161.359 65.1341V67.5675H161.335Z" fill="white"/>
<path d="M166.911 66.9533C166.911 65.7248 166.911 65.4885 166.911 65.2286C166.887 64.9451 166.816 64.8506 166.651 64.8034C166.556 64.7798 166.462 64.7561 166.367 64.7561C166.296 64.7561 166.249 64.7325 166.249 64.6616C166.249 64.6144 166.32 64.5908 166.438 64.5908C166.722 64.5908 167.241 64.6144 167.454 64.6144C167.643 64.6144 168.139 64.5908 168.423 64.5908C168.517 64.5908 168.588 64.6144 168.588 64.6616C168.588 64.7325 168.541 64.7561 168.47 64.7561C168.399 64.7561 168.328 64.7561 168.234 64.7798C168.021 64.827 167.974 64.9215 167.95 65.2286C167.927 65.4885 167.927 65.7248 167.927 66.9533V68.3708C167.927 69.1504 167.927 69.7883 167.95 70.1426C167.974 70.3553 168.021 70.4734 168.257 70.5206C168.352 70.5443 168.541 70.5443 168.635 70.5443C168.73 70.5443 168.753 70.5915 168.753 70.6388C168.753 70.686 168.683 70.7333 168.612 70.7333C168.116 70.7333 167.596 70.7096 167.383 70.7096C167.218 70.7096 166.698 70.7333 166.391 70.7333C166.296 70.7333 166.249 70.7096 166.249 70.6388C166.249 70.5915 166.273 70.5443 166.367 70.5443C166.485 70.5443 166.556 70.5443 166.627 70.5206C166.793 70.4734 166.816 70.3789 166.863 70.119C166.887 69.7883 166.887 69.1268 166.887 68.3471V66.9533H166.911Z" fill="white"/>
<path d="M171.116 69.6229C171.14 70.2608 171.234 70.4498 171.376 70.497C171.494 70.5443 171.659 70.5443 171.777 70.5443C171.872 70.5443 171.896 70.5915 171.896 70.6388C171.896 70.7096 171.825 70.7333 171.73 70.7333C171.234 70.7333 170.88 70.7096 170.738 70.7096C170.667 70.7096 170.313 70.7333 169.911 70.7333C169.817 70.7333 169.746 70.7333 169.746 70.6388C169.746 70.5915 169.793 70.5443 169.864 70.5443C169.958 70.5443 170.1 70.5443 170.218 70.497C170.407 70.4498 170.454 70.2135 170.454 69.5284L170.525 64.7325C170.525 64.5671 170.573 64.449 170.643 64.449C170.738 64.449 170.832 64.5671 170.974 64.7089C171.069 64.8034 172.203 66.1028 173.313 67.284C173.833 67.851 174.849 68.985 174.967 69.1031H174.99L174.92 65.5121C174.92 65.016 174.849 64.8743 174.66 64.8034C174.542 64.7561 174.376 64.7561 174.258 64.7561C174.164 64.7561 174.14 64.7089 174.14 64.6616C174.14 64.5908 174.211 64.5908 174.329 64.5908C174.731 64.5908 175.132 64.6144 175.298 64.6144C175.392 64.6144 175.676 64.5908 176.054 64.5908C176.148 64.5908 176.219 64.5908 176.219 64.6616C176.219 64.7089 176.172 64.7561 176.101 64.7561C176.03 64.7561 175.959 64.7561 175.865 64.7798C175.652 64.8506 175.605 64.9924 175.581 65.4413L175.487 70.5443C175.487 70.7333 175.416 70.8041 175.368 70.8041C175.25 70.8041 175.132 70.7096 175.061 70.6388C174.589 70.1426 173.644 69.1504 172.841 68.2999C172.014 67.4258 171.21 66.4335 171.069 66.2918H171.045L171.116 69.6229Z" fill="white"/>
<path d="M182.527 70.1899C182.527 70.4025 182.527 70.4261 182.432 70.4734C181.913 70.7569 181.18 70.8277 180.566 70.8277C178.7 70.8277 177.046 69.9064 177.046 67.662C177.046 66.3626 177.684 65.4649 178.369 65.016C179.101 64.5435 179.786 64.4962 180.424 64.4962C180.944 64.4962 181.629 64.5907 181.771 64.638C181.936 64.6616 182.196 64.7089 182.385 64.7325C182.48 64.7325 182.48 64.7797 182.48 64.827C182.48 64.9215 182.432 65.1341 182.432 66.15C182.432 66.2681 182.385 66.339 182.338 66.339C182.291 66.339 182.267 66.2917 182.267 66.2445C182.243 66.0555 182.196 65.7956 182.007 65.583C181.771 65.3231 181.204 64.9687 180.353 64.9687C179.928 64.9687 179.408 64.9687 178.889 65.4412C178.463 65.8192 178.18 66.4335 178.18 67.4021C178.18 69.1504 179.196 70.4025 180.826 70.4025C181.015 70.4025 181.18 70.4025 181.369 70.308C181.487 70.2607 181.511 70.1662 181.511 70.0245V69.2921C181.511 68.8905 181.511 68.5834 181.511 68.3471C181.511 68.0636 181.416 67.9927 181.18 67.8982C181.109 67.8746 180.991 67.8746 180.897 67.8746C180.826 67.8746 180.779 67.8274 180.779 67.7801C180.779 67.7092 180.849 67.7092 180.944 67.7092C181.346 67.7092 181.889 67.7329 182.102 67.7329C182.338 67.7329 182.739 67.7092 182.999 67.7092C183.094 67.7092 183.165 67.7092 183.165 67.7801C183.165 67.8274 183.117 67.8746 183.07 67.8746C182.999 67.8746 182.952 67.8746 182.858 67.8982C182.645 67.9455 182.574 68.04 182.574 68.3471C182.574 68.5834 182.574 68.9141 182.574 69.3157V70.1899H182.527Z" fill="white"/>
</svg>
